<svg width="188" height="170" viewBox="0 0 188 170" fill="none" xmlns="http://www.w3.org/2000/svg">
<path d="M187.564 68.8729C189.735 78.0288 183.112 86.9488 172.965 88.6755C169.088 89.3353 165.265 88.848 161.927 87.4786C159.636 86.5386 157.125 88.3432 157.592 90.5727L162.386 113.46C164.204 122.137 157.873 130.5 148.246 132.138L122.849 136.46C120.373 136.881 119.43 139.648 121.238 141.23C123.925 143.581 125.846 146.694 126.542 150.285C128.236 159.026 121.887 167.515 112.261 169.375C102.099 171.337 92.1962 165.367 90.2798 156.218C89.5474 152.722 90.088 149.276 91.6077 146.268C92.6508 144.203 90.6487 141.939 88.1751 142.36L62.7813 146.682C53.1539 148.32 43.8756 142.614 42.0579 133.936L37.2634 111.048C36.7958 108.816 33.7268 107.967 31.9711 109.596C29.3634 112.017 25.9126 113.748 21.9312 114.376C12.2355 115.905 2.81638 110.188 0.747155 101.514C-1.43838 92.3534 5.18685 83.4208 15.3414 81.6928C19.2202 81.0327 23.0437 81.5199 26.3815 82.8896C28.6726 83.8299 31.1837 82.0252 30.7167 79.7958L25.9222 56.9081C24.1043 48.2296 30.4362 39.866 40.0648 38.2275L65.4556 33.9066C67.9292 33.4857 68.878 30.7204 67.0715 29.1403C64.4401 26.8385 62.5425 23.8076 61.8104 20.3129C59.8947 11.1674 66.6953 2.35681 76.9458 0.840266C86.6599 -0.596997 96.0094 5.2161 97.9746 13.9101C98.7828 17.4853 98.2533 21.0186 96.701 24.0946C95.6578 26.1616 97.6554 28.4271 100.131 28.0058L125.525 23.6845C135.154 22.0459 144.433 27.7529 146.251 36.4314L151.045 59.3191C151.513 61.5507 154.582 62.4012 156.337 60.772C158.948 58.3476 162.406 56.615 166.394 55.9897C176.092 54.4689 185.507 60.1962 187.564 68.8729Z" fill="#485AF9"/>
</svg>
