<svg width="71" height="107" viewBox="0 0 71 107" fill="none" xmlns="http://www.w3.org/2000/svg">
<path d="M49.0081 37.4005C57.1357 37.5239 63.8011 44.5061 63.9955 53.1054C64.2006 62.1795 57.3109 69.6034 48.7844 69.6034C45.5263 69.6034 42.5071 68.5194 40.0318 66.6738C38.3326 65.4069 35.9887 66.7189 35.9887 68.9185V91.4988C35.9887 100.06 29.4304 107 21.3403 107H0V0H21.3385C29.4295 0 35.9887 6.94102 35.9887 15.5032V38.0839C35.9887 40.2856 38.3341 41.5933 40.0351 40.3258C42.5663 38.4397 45.6659 37.3496 49.0081 37.4005Z" fill="#485AF9"/>
<path d="M71 0V107H49.655C41.5614 107 35.0002 100.059 35.0002 91.4968V68.9176C35.0002 66.7153 37.3467 65.4086 39.0488 66.6764C41.5769 68.5597 44.672 69.6491 48.01 69.6018C56.1395 69.4869 62.8125 62.5135 63.0171 53.9154C63.2335 44.8338 56.3374 37.3986 47.8018 37.3986C44.5414 37.3986 41.5209 38.4825 39.0447 40.3285C37.3449 41.5956 35 40.2835 35 38.0839V15.5031C35 6.94102 41.5612 0 49.6548 0H71Z" fill="#F97448"/>
</svg>
