<svg width="304" height="273" viewBox="0 0 304 273" fill="none" xmlns="http://www.w3.org/2000/svg">
<path d="M302.826 110.231C306.326 124.994 295.648 139.376 279.288 142.16C273.036 143.224 266.872 142.438 261.491 140.23C257.797 138.715 253.749 141.624 254.502 145.219L262.232 182.121C265.163 196.111 254.955 209.595 239.432 212.236L198.484 219.205C194.492 219.884 192.971 224.344 195.887 226.895C200.22 230.687 203.317 235.705 204.439 241.495C207.169 255.588 196.933 269.276 181.413 272.274C165.028 275.439 149.061 265.813 145.971 251.062C144.791 245.425 145.662 239.869 148.112 235.018C149.794 231.688 146.566 228.039 142.578 228.718L101.634 235.685C86.1119 238.327 71.1521 229.127 68.2213 215.136L60.491 178.233C59.7371 174.634 54.7888 173.264 51.958 175.892C47.7535 179.795 42.1896 182.585 35.7702 183.598C20.1375 186.063 4.95071 176.845 1.61442 162.861C-1.9094 148.09 8.77272 133.688 25.1452 130.901C31.3992 129.837 37.564 130.623 42.9457 132.831C46.6398 134.347 50.6885 131.437 49.9355 127.843L42.2052 90.9402C39.2741 76.9475 49.4832 63.4625 65.0078 60.8206L105.946 53.854C109.935 53.1753 111.464 48.7168 108.552 46.1691C104.309 42.4578 101.249 37.5709 100.069 31.9363C96.9803 17.1907 107.945 2.985 124.472 0.53982C140.135 -1.77753 155.209 7.59515 158.378 21.6129C159.681 27.3772 158.827 33.0741 156.324 38.0337C154.643 41.3664 157.863 45.0191 161.855 44.3398L202.798 37.3724C218.323 34.7305 233.284 43.9322 236.216 57.9248L243.946 94.8274C244.7 98.4256 249.648 99.7968 252.477 97.17C256.689 93.2611 262.262 90.4676 268.693 89.4594C284.33 87.0074 299.509 96.2416 302.826 110.231Z" fill="#F97448"/>
</svg>
