<svg width="283" height="255" viewBox="0 0 283 255" fill="none" xmlns="http://www.w3.org/2000/svg">
<path d="M250.981 244.754C237.353 254.704 217.19 253.142 205.637 241.248C200.886 236.357 198.246 230.467 197.637 224.472C197.228 220.443 191.919 218.525 188.499 221.146L153.425 248.031C140.125 258.225 120.175 256.771 108.865 244.784L8.47658 138.39C-2.83226 126.405 -1.22036 108.425 12.0774 98.2325L47.1543 71.3456C50.5742 68.7243 55.884 70.6422 56.293 74.6713C56.9017 80.667 59.5413 86.5568 64.2923 91.4478C75.8455 103.342 96.0084 104.904 109.637 94.9536C124.018 84.4538 125.918 65.4078 113.999 52.7758C109.445 47.9485 103.541 44.7664 97.2139 43.2966C92.8708 42.2876 91.6322 37.2528 95.0487 34.634L130.122 7.75001C143.419 -2.44269 163.367 -0.989645 174.676 10.996L204.505 42.6091C207.41 45.6886 212.997 44.572 214.116 40.6572C215.746 34.9541 219.278 29.6321 224.635 25.5255C238.655 14.779 259.796 16.4972 271.443 29.4721C282.475 41.7622 280.73 59.9349 267.526 70.3406C262.101 74.6159 255.572 76.9914 248.926 77.5391C244.455 77.9077 242.326 82.6932 245.235 85.7761L275.064 117.39C286.375 129.377 284.762 147.358 271.463 157.552L236.393 184.434C232.976 187.053 234.215 192.088 238.558 193.097C244.885 194.567 250.789 197.749 255.344 202.576C267.263 215.208 265.362 234.254 250.981 244.754Z" fill="#F97448"/>
</svg>
